<svg xmlns="http://www.w3.org/2000/svg" xmlns:xlink="http://www.w3.org/1999/xlink" viewBox="0 0 24 30" version="1.1" x="0px" y="0px"><title>Log-out</title><desc>Created with Sketch.</desc><g stroke="none" stroke-width="1" fill="none" fill-rule="evenodd"><g transform="translate(-553.000000, -108.000000)" fill="#000000"><path d="M571.399609,125.349299 L576.658318,120.748393 L576.658318,120.748393 C577.073973,120.384732 577.116122,119.752971 576.752461,119.337316 C576.723206,119.303879 576.691756,119.272428 576.658318,119.243174 L571.367422,114.614107 L571.367422,114.614107 C570.970124,114.266507 570.371068,114.287595 569.999196,114.662272 L569.994092,114.667414 L569.994092,114.667414 C569.644058,115.020089 569.646198,115.589747 569.998873,115.939781 C570.009612,115.95044 570.020618,115.960826 570.031882,115.97093 L573.403829,118.995783 L560.002374,118.995783 L560.002374,118.995783 C559.450089,118.995783 559.002374,119.443499 559.002374,119.995783 L559.002374,119.995783 L559.002374,119.995783 C559.002374,120.548068 559.450089,120.995783 560.002374,120.995783 L573.403829,120.995783 L570.077034,123.877917 L570.077034,123.877917 C569.672582,124.22831 569.628759,124.840232 569.979151,125.244684 C569.984066,125.250357 569.989047,125.255973 569.994092,125.26153 L570.000751,125.268865 L570.000751,125.268865 C570.367172,125.672472 570.989341,125.708247 571.399609,125.349299 Z M568.005935,113 L568.005935,113 L568.005935,113 C567.453432,113 567.005539,112.552108 567.005539,111.999604 L567.005539,110 L556.000791,110 L556.000791,110 C555.448507,110 555.000791,110.447715 555.000791,111 L555.000791,129 L555.000791,129 C555.000791,129.552285 555.448507,130 556.000791,130 L567.005539,130 L567.005539,128.000396 L567.005539,128.000396 C567.005539,127.447892 567.453432,127 568.005935,127 L568.005935,127 L568.005935,127 C568.558438,127 569.00633,127.447892 569.00633,128.000396 L569.00633,130 C569,131 568,132 567.005539,132 L555.000791,132 C554.000396,132 553,131 553,130 L553,110 C553,109 554.000396,108 555.000791,108 L567,108 C568,108 569,109.020662 569,110 L569.004219,111.999607 L569.004219,111.999607 C569.005383,112.550944 568.559379,112.998834 568.008041,112.999998 C568.007339,112.999999 568.006637,113 568.005935,113 Z"/></g></g><text x="0" y="39" fill="#000000" font-size="5px" font-weight="bold" font-family="'Helvetica Neue', Helvetica, Arial-Unicode, Arial, Sans-serif">Created by shaun.johnson</text><text x="0" y="44" fill="#000000" font-size="5px" font-weight="bold" font-family="'Helvetica Neue', Helvetica, Arial-Unicode, Arial, Sans-serif">from the Noun Project</text></svg>
